<svg width="1065" height="170" viewBox="0 0 1065 170" fill="none" xmlns="http://www.w3.org/2000/svg">
    <path
        d="M1064.7 167.514H1041.9L1040.22 143.725C1035.08 152.096 1028.15 158.594 1019.44 163.219C1010.72 167.625 1000.55 169.827 988.927 169.827C975.963 169.827 964.675 167.184 955.064 161.898C945.453 156.611 937.965 148.681 932.6 138.109C927.459 127.536 924.889 114.21 924.889 98.13V2.31346H949.7V95.4868C949.7 112.447 953.388 125.333 960.764 134.144C968.363 142.734 979.204 147.029 993.286 147.029C1007.59 147.029 1018.88 142.514 1027.15 133.483C1035.64 124.232 1039.89 110.355 1039.89 91.8523V2.31346H1064.7V167.514Z"
        fill="currentColor" />
    <path
        d="M806.749 2.31349H829.883L831.224 26.4328C835.695 20.4856 841.059 15.4194 847.318 11.2343C853.8 7.04923 860.841 4.18576 868.44 2.64389C876.263 0.881738 884.534 0.771604 893.251 2.31349V27.0936C883.863 25.3315 875.369 25.3315 867.77 27.0936C860.394 28.8558 854.023 32.1598 848.659 37.0057C843.294 41.8516 839.159 48.0191 836.254 55.5082C833.348 62.777 831.895 71.2573 831.895 80.9491V167.514H806.749V2.31349Z"
        fill="currentColor" />
    <path
        d="M734.557 167.514L732.545 137.778C727.851 147.91 720.922 155.84 711.758 161.566C702.593 167.073 690.97 169.827 676.889 169.827C664.819 169.827 654.537 167.954 646.043 164.21C637.549 160.465 630.955 155.179 626.261 148.35C621.791 141.302 619.556 133.042 619.556 123.57C619.556 109.693 624.809 98.3497 635.314 89.5389C645.819 80.508 661.019 75.0012 680.912 73.0188L732.545 67.402V54.1859C732.545 44.9347 729.08 37.5557 722.151 32.049C715.222 26.322 705.834 23.4585 693.988 23.4585C682.365 23.4585 672.642 26.1018 664.819 31.3882C657.219 36.6746 651.966 44.2739 649.06 54.1859L626.261 46.2563C630.732 31.7186 638.89 20.3748 650.737 12.2249C662.807 4.07496 677.447 0 694.658 0C714.552 0 729.974 5.06617 740.927 15.1985C752.103 25.1106 757.691 38.657 757.691 55.8379V167.514H734.557ZM732.545 88.5477L680.577 94.495C669.401 95.8166 660.907 98.9003 655.095 103.746C649.284 108.372 646.378 114.539 646.378 122.249C646.378 129.958 649.172 136.126 654.76 140.751C660.572 145.377 668.842 147.69 679.571 147.69C691.864 147.69 701.923 145.267 709.746 140.421C717.569 135.575 723.269 129.077 726.845 120.927C730.645 112.557 732.545 103.526 732.545 93.8341V88.5477Z"
        fill="currentColor" />
    <path
        d="M522.476 2.31347L547.622 2.31336L606.742 2.31347V25.4416H547.622V114.32C547.622 124.452 549.745 131.831 553.992 136.457C558.462 141.082 564.05 143.836 570.756 144.717C577.685 145.598 584.838 145.598 592.214 144.717V166.193C583.496 168.175 574.891 168.726 566.397 167.845C558.127 166.964 550.639 164.541 543.933 160.576C537.451 156.391 532.199 150.554 528.175 143.065C524.376 135.576 522.476 125.994 522.476 114.32V25.4416H480.726V2.31347H522.476Z"
        fill="currentColor" />
    <path d="M430.333 2.31346H455.143V167.514H430.333V2.31346Z" fill="currentColor" />
    <path d="M276.275 3.96547H251.129V169.166H276.275V3.96547Z" fill="currentColor" />
    <path d="M357.91 3.96547L291.86 75.6627V97.1388L357.91 169.166H393.785L314.324 86.5659L393.45 3.96547H357.91Z"
        fill="currentColor" />
    <path
        d="M84.0547 0.885742C37.6324 0.885742 -0.000718234 38.5182 -0.000976562 84.9404C-0.000976562 131.363 37.6323 168.996 84.0547 168.996C130.477 168.996 168.109 131.363 168.109 84.9404C168.109 38.5184 130.477 0.885983 84.0547 0.885742ZM84.0566 24.9014C117.215 24.9014 144.096 51.7817 144.096 84.9404C144.096 118.099 117.215 144.98 84.0566 144.98C50.8978 144.98 24.0176 118.099 24.0176 84.9404C24.0177 51.7817 50.8978 24.9014 84.0566 24.9014Z"
        fill="#F17829" />
</svg>